<svg width="100" height="101" viewBox="0 0 100 101" fill="none" xmlns="http://www.w3.org/2000/svg">
<g clip-path="url(#clip0_30_563)">
<path d="M100 50.8037C100 23.1895 77.6143 0.803711 50 0.803711C22.3857 0.803711 0 23.1895 0 50.8037C0 75.7602 18.2844 96.4453 42.1875 100.196V65.2568H29.4922V50.8037H42.1875V39.7881C42.1875 27.2568 49.6521 20.335 61.0732 20.335C66.5438 20.335 72.2656 21.3115 72.2656 21.3115V33.6162H65.9607C59.7496 33.6162 57.8125 37.4703 57.8125 41.4244V50.8037H71.6797L69.4629 65.2568H57.8125V100.196C81.7158 96.4453 100 75.7602 100 50.8037Z" fill="#4B6982"/>
</g>
<defs>
<clipPath id="clip0_30_563">
<rect width="100" height="100" fill="white" transform="translate(0 0.5)"/>
</clipPath>
</defs>
</svg>
