<svg width="100" height="101" viewBox="0 0 100 101" fill="none" xmlns="http://www.w3.org/2000/svg">
<g clip-path="url(#clip0_30_561)">
<path fill-rule="evenodd" clip-rule="evenodd" d="M50 0.5C77.5957 0.5 100 22.9043 100 50.5C100 78.0957 77.5957 100.5 50 100.5C22.4043 100.5 0 78.0957 0 50.5C0 22.9043 22.4043 0.5 50 0.5ZM50 19.25C41.5131 19.25 40.4488 19.2859 37.1156 19.4381C33.7895 19.5898 31.5178 20.1182 29.5299 20.8906C27.475 21.6893 25.7322 22.7578 23.9949 24.4951C22.2576 26.2324 21.1891 27.9752 20.3904 30.0301C19.618 32.0178 19.0898 34.2895 18.9379 37.6156C18.7859 40.9488 18.75 42.0131 18.75 50.5C18.75 58.9869 18.7859 60.0512 18.9379 63.3844C19.0898 66.7105 19.618 68.9822 20.3904 70.9699C21.1891 73.0248 22.2576 74.7676 23.9949 76.5051C25.7322 78.2424 27.475 79.3109 29.5299 80.1096C31.5178 80.8818 33.7895 81.4102 37.1156 81.5619C40.4488 81.7141 41.5131 81.75 50 81.75C58.4869 81.75 59.5512 81.7141 62.8844 81.5619C66.2105 81.4102 68.4822 80.8818 70.4699 80.1096C72.5248 79.3109 74.2676 78.2424 76.0051 76.5051C77.7424 74.7676 78.8109 73.0248 79.6096 70.9699C80.3818 68.9822 80.9102 66.7105 81.0619 63.3844C81.2141 60.0512 81.25 58.9869 81.25 50.5C81.25 42.0131 81.2141 40.9488 81.0619 37.6156C80.9102 34.2895 80.3818 32.0178 79.6096 30.0301C78.8109 27.9752 77.7424 26.2324 76.0051 24.4951C74.2676 22.7578 72.5248 21.6893 70.4699 20.8906C68.4822 20.1182 66.2105 19.5898 62.8844 19.4381C59.5512 19.2859 58.4869 19.25 50 19.25ZM50 24.8807C58.3441 24.8807 59.3324 24.9125 62.6277 25.0629C65.6746 25.202 67.3291 25.7109 68.4303 26.1389C69.8891 26.7057 70.9301 27.383 72.0234 28.4766C73.1172 29.5699 73.7943 30.6111 74.3611 32.0697C74.7891 33.1709 75.2982 34.8254 75.4371 37.8723C75.5875 41.1676 75.6193 42.1559 75.6193 50.5C75.6193 58.8441 75.5875 59.8324 75.4371 63.1277C75.2982 66.1746 74.7891 67.8291 74.3611 68.9303C73.7943 70.3891 73.1172 71.4301 72.0234 72.5234C70.9301 73.6172 69.8891 74.2943 68.4303 74.8611C67.3291 75.2891 65.6746 75.7982 62.6277 75.9371C59.333 76.0875 58.3447 76.1193 50 76.1193C41.6553 76.1193 40.6672 76.0875 37.3723 75.9371C34.3254 75.7982 32.6709 75.2891 31.5697 74.8611C30.1109 74.2943 29.0699 73.6172 27.9764 72.5234C26.8828 71.4301 26.2057 70.3891 25.6389 68.9303C25.2109 67.8291 24.7018 66.1746 24.5627 63.1277C24.4123 59.8324 24.3807 58.8441 24.3807 50.5C24.3807 42.1559 24.4123 41.1676 24.5627 37.8723C24.7018 34.8254 25.2109 33.1709 25.6389 32.0697C26.2057 30.6111 26.8828 29.5699 27.9764 28.4766C29.0699 27.383 30.1109 26.7057 31.5697 26.1389C32.6709 25.7109 34.3254 25.202 37.3723 25.0629C40.6676 24.9125 41.6559 24.8807 50 24.8807ZM50 34.4527C41.1373 34.4527 33.9527 41.6373 33.9527 50.5C33.9527 59.3627 41.1373 66.5473 50 66.5473C58.8627 66.5473 66.0473 59.3627 66.0473 50.5C66.0473 41.6373 58.8627 34.4527 50 34.4527ZM50 60.9166C44.2471 60.9166 39.5834 56.2529 39.5834 50.5C39.5834 44.7471 44.2471 40.0834 50 40.0834C55.7529 40.0834 60.4166 44.7471 60.4166 50.5C60.4166 56.2529 55.7529 60.9166 50 60.9166ZM70.4314 33.8187C70.4314 35.8898 68.7523 37.5686 66.6813 37.5686C64.6104 37.5686 62.9314 35.8898 62.9314 33.8187C62.9314 31.7477 64.6104 30.0688 66.6813 30.0688C68.7523 30.0688 70.4314 31.7477 70.4314 33.8187Z" fill="#4B6982"/>
</g>
<defs>
<clipPath id="clip0_30_561">
<rect width="100" height="100" fill="white" transform="translate(0 0.5)"/>
</clipPath>
</defs>
</svg>
