<svg width="100" height="101" viewBox="0 0 100 101" fill="none" xmlns="http://www.w3.org/2000/svg">
<g clip-path="url(#clip0_30_910)">
<path d="M50 100.5C22.39 100.5 0 78.11 0 50.5C0 22.89 22.39 0.5 50 0.5C77.61 0.5 100 22.89 100 50.5C100 78.11 77.61 100.5 50 100.5Z" fill="#4B6982"/>
<path d="M61.4599 60.92C58.5899 60.92 56.25 58.58 56.25 55.71C56.25 52.84 58.5899 50.5 61.4599 50.5C64.3299 50.5 66.6699 52.84 66.6699 55.71C66.6699 58.58 64.3299 60.92 61.4599 60.92ZM62.3799 69.47C58.8199 73.02 52.0099 73.3 50.0099 73.3C48.01 73.3 41.1899 73.02 37.6399 69.47C37.1099 68.94 37.1099 68.09 37.6399 67.56C38.1699 67.03 39.0199 67.03 39.5499 67.56C41.7899 69.8 46.58 70.6 50.0099 70.6C53.43 70.6 58.2299 69.8 60.47 67.56C61 67.03 61.8499 67.03 62.3799 67.56C62.8999 68.09 62.8999 68.94 62.3799 69.47ZM33.3299 55.71C33.3299 52.84 35.6699 50.5 38.5399 50.5C41.4099 50.5 43.75 52.84 43.75 55.71C43.75 58.58 41.4099 60.92 38.5399 60.92C35.6699 60.92 33.3299 58.58 33.3299 55.71ZM83.3299 50.5C83.3299 46.47 80.07 43.21 76.04 43.21C74.07 43.21 72.2899 43.99 70.9799 45.26C65.9999 41.66 59.1299 39.34 51.4799 39.07L54.7999 23.44L65.6499 25.75C65.7799 28.51 68.0399 30.71 70.8299 30.71C73.7099 30.71 76.04 28.38 76.04 25.5C76.04 22.62 73.7099 20.29 70.8299 20.29C68.7799 20.29 67.0299 21.48 66.1799 23.2L54.0599 20.62C53.7199 20.55 53.3699 20.61 53.0799 20.8C52.7899 20.99 52.59 21.28 52.52 21.62L48.8799 38.77C48.8599 38.87 48.8799 38.96 48.8799 39.06C41.0899 39.26 34.0899 41.59 29.0299 45.24C27.7199 43.98 25.95 43.21 23.99 43.21C19.96 43.21 16.7 46.48 16.7 50.5C16.7 53.46 18.47 56.01 21.01 57.15C20.9 57.87 20.84 58.61 20.84 59.36C20.84 70.58 33.9 79.67 50.0099 79.67C66.1199 79.67 79.1799 70.58 79.1799 59.36C79.1799 58.62 79.1199 57.89 79.0099 57.17C81.5399 56.03 83.3299 53.48 83.3299 50.5Z" fill="white"/>
</g>
<defs>
<clipPath id="clip0_30_910">
<rect width="100" height="100" fill="white" transform="translate(0 0.5)"/>
</clipPath>
</defs>
</svg>
