<svg width="100" height="101" viewBox="0 0 100 101" fill="none" xmlns="http://www.w3.org/2000/svg">
<g clip-path="url(#clip0_30_559)">
<path d="M50.002 0.5C22.3867 0.5 0 22.8908 0 50.502C0 78.1174 22.3867 100.5 50.002 100.5C77.6174 100.5 100 78.1174 100 50.502C100 22.8908 77.6153 0.5 50.002 0.5ZM75.1888 40.4204C75.2152 40.9605 75.2254 41.5027 75.2254 42.0509C75.2254 58.7034 62.5508 77.9021 39.3742 77.9021C32.2592 77.9021 25.6335 75.8168 20.0577 72.243C21.0445 72.3588 22.0456 72.4176 23.0629 72.4176C28.9677 72.4176 34.4014 70.4034 38.7122 67.0245C33.1993 66.921 28.5474 63.2762 26.9432 58.2709C27.7108 58.4211 28.5007 58.4963 29.3129 58.4963C30.4622 58.4963 31.5749 58.346 32.6328 58.0556C26.8661 56.8982 22.5227 51.8016 22.5227 45.7018C22.5227 45.647 22.5227 45.5942 22.5248 45.5394C24.2223 46.4836 26.1655 47.0501 28.2326 47.1171C24.8497 44.8531 22.6263 41.0011 22.6263 36.6274C22.6263 34.3186 23.2476 32.1521 24.332 30.2921C30.5474 37.9147 39.8331 42.9322 50.3066 43.4561C50.0914 42.5362 49.9797 41.5717 49.9797 40.5849C49.9797 33.6283 55.6205 27.9854 62.5812 27.9854C66.2057 27.9854 69.479 29.5164 71.7775 31.9632C74.6487 31.4008 77.3453 30.3489 79.7799 28.9052C78.8357 31.8495 76.8397 34.3186 74.2365 35.8761C76.7889 35.5715 79.2174 34.8933 81.4754 33.8922C79.79 36.4243 77.6519 38.6437 75.1888 40.4204Z" fill="#4B6982"/>
</g>
<defs>
<clipPath id="clip0_30_559">
<rect width="100" height="100" fill="white" transform="translate(0 0.5)"/>
</clipPath>
</defs>
</svg>
