<svg width="100" height="101" viewBox="0 0 100 101" fill="none" xmlns="http://www.w3.org/2000/svg">
<g clip-path="url(#clip0_30_566)">
<path fill-rule="evenodd" clip-rule="evenodd" d="M50 0.5C77.5957 0.5 100 22.9043 100 50.5C100 78.0957 77.5957 100.5 50 100.5C22.4043 100.5 0 78.0957 0 50.5C0 22.9043 22.4043 0.5 50 0.5ZM79.9443 35.4566C79.2256 32.7674 77.108 30.65 74.4189 29.9313C69.5443 28.625 50 28.625 50 28.625C50 28.625 30.4557 28.625 25.5811 29.9313C22.8926 30.65 20.7744 32.7674 20.0557 35.4566C18.75 40.3307 18.75 50.5004 18.75 50.5004C18.75 50.5004 18.75 60.6697 20.0557 65.5434C20.7744 68.2326 22.8926 70.3508 25.5811 71.0693C30.4557 72.375 50 72.375 50 72.375C50 72.375 69.5443 72.375 74.4189 71.0693C77.108 70.3508 79.2256 68.2326 79.9443 65.5434C81.25 60.6697 81.25 50.5004 81.25 50.5004C81.25 50.5004 81.25 40.3307 79.9443 35.4566ZM43.7498 59.8756V41.1252L59.9875 50.5004L43.7498 59.8756Z" fill="#4B6982"/>
</g>
<defs>
<clipPath id="clip0_30_566">
<rect width="100" height="100" fill="white" transform="translate(0 0.5)"/>
</clipPath>
</defs>
</svg>
