<svg width="69" height="45" viewBox="0 0 69 45" fill="none" xmlns="http://www.w3.org/2000/svg">
<path d="M38.9103 13.5831C38.9103 11.9251 37.2481 11.7229 35.6802 11.7229L31.0708 11.6925V18.6987H33.0042V16.1611H35.1261C37.2953 16.1611 36.8355 17.2024 36.8709 18.6987H38.8278V17.3338C38.8278 16.4037 38.651 15.8073 37.531 15.4736C38.4034 15.1703 38.9221 14.3919 38.9103 13.5831ZM35.4444 14.7255H33.0042V13.1787H35.4798C36.081 13.1787 36.7412 13.2798 36.7412 13.9268C36.7412 14.5941 36.1164 14.7255 35.4444 14.7255ZM33.4757 23.7738H27.2631L24.7874 26.0789L22.3708 23.7738H14.5313L14.5195 30.78H22.2293L24.7403 28.4547L27.1452 30.78H30.9411L30.9529 28.4244C33.181 28.4244 36.7648 28.8894 36.7648 26.0688C36.7648 24.3198 35.3148 23.7738 33.4757 23.7738ZM21.239 29.3039H16.4528V27.9088H20.7321V26.4833H16.4528V25.2195H21.3687L23.4789 27.2617L21.239 29.3039ZM28.996 30.1329L26.0135 27.2921L28.996 24.522V30.1329ZM33.4521 26.9989H30.9529V25.2195H33.4875C34.1477 25.2195 34.6899 25.4521 34.6899 26.0688C34.6899 26.7158 34.1477 26.9989 33.4521 26.9989ZM29.7269 13.1787V11.7026H23.1842V18.7088H29.7269V17.2631H25.1411V15.8679H29.5972V14.4424H25.1411V13.1787H29.7269ZM45.5473 25.6644C45.5473 24.0064 43.8851 23.7738 42.3526 23.7738H37.7079L37.6961 30.78H39.653L39.6648 28.2222H41.7396C43.0364 28.2222 43.4843 28.4244 43.4843 29.6173L43.4725 30.78H45.4295L45.4413 29.3848C45.4413 28.485 45.2291 27.8582 44.1445 27.5246C45.0522 27.2112 45.5356 26.4327 45.5473 25.6644ZM42.105 26.7967H39.6648V25.2195H42.1404C42.7416 25.2195 43.4018 25.3206 43.4018 25.9677C43.4018 26.6653 42.7652 26.7967 42.105 26.7967ZM21.7342 18.7088V11.7026H18.4805L16.1581 16.4543L13.6 11.7026H10.4052V18.3448L7.09259 11.7026H4.20436L0.70311 18.7088H2.81329L3.56777 17.162H7.63487L8.38935 18.7088H12.3739V13.2292L15.2032 18.7088H16.9244L19.7537 13.2292V18.7088H21.7342ZM4.2633 15.7062L5.58363 12.9158L6.93934 15.7062H4.2633ZM60.5426 31.7707V31.3158C59.2694 31.8819 60.0828 31.7707 42.0697 31.7707C42.0697 29.223 42.0815 29.3545 42.0697 29.223C41.8693 29.2129 41.6924 29.2129 40.9615 29.2129C40.9615 31.0226 40.9498 29.9004 40.9498 31.7707H36.2814C36.2814 30.5474 36.2932 30.2239 36.2932 28.8187C35.1143 29.4252 33.6054 29.4657 32.2497 29.4455C32.2497 30.9316 32.2379 30.2846 32.2379 31.7707H26.4732C25.872 31.1945 26.1549 31.4573 24.6578 30.0116C24.2805 30.3655 23.1488 31.4169 22.7598 31.7707H13.093V22.4393H22.8895C23.4789 23.0055 23.2195 22.7527 24.7167 24.1782C25.0939 23.8244 26.1549 22.8235 26.5675 22.4393H33.405C34.5603 22.4393 35.527 22.6314 36.2696 23.0055V22.4393C42.6709 22.4393 43.8498 22.2978 45.1937 22.9549V22.4393H54.4125V22.965C55.7564 22.2675 56.723 22.4393 62.0633 22.4393V22.9448C63.2776 22.3483 64.0203 22.4191 68.4646 22.4393V4.70662C68.4646 2.0275 65.93 -0.146118 62.806 -0.146118H6.22022C3.09622 -0.146118 0.561646 2.0275 0.561646 4.70662V15.8073C1.66978 13.5932 2.88402 11.1567 3.28484 10.358H7.96495C8.47187 11.3791 8.15357 10.7321 9.02594 12.4912V10.358H14.4487C14.7906 10.9848 15.7573 12.7844 16.0874 13.391C16.7711 12.0161 17.278 10.9747 17.5727 10.358H29.7151C29.7151 10.3479 31.0708 10.358 31.0826 10.358C36.2343 10.3783 37.4014 10.2772 38.6745 10.8939V10.358H43.3782V11.2983C44.2742 10.6816 45.4884 10.358 46.9974 10.358H50.251C50.251 10.4086 50.475 10.3884 50.5222 10.3884H54.3417C54.8368 11.3791 54.6482 10.995 55.3791 12.471V10.3884H60.4836C61.0613 11.1972 60.3658 10.2064 61.804 12.2486V10.3884H66.5077V19.6894H61.6036C60.967 18.7796 61.4385 19.467 60.0475 17.4754V19.6894H53.823C53.0685 18.1932 53.8112 19.6591 53.045 18.1426H50.8051C50.31 19.1536 50.5458 18.6683 50.0506 19.6894H46.8913C45.4412 19.6894 44.2624 19.3861 43.39 18.7897V19.6894H35.5505C35.5152 18.2842 35.5387 17.1822 35.5387 17.1822C35.3265 17.1519 35.1379 17.162 34.3834 17.162V19.6996H18.4097V18.547C18.115 19.1132 18.0915 19.1435 17.8085 19.6996H14.3309C13.8593 18.7998 13.989 19.0525 13.7296 18.547V19.6996H7.4934C6.99828 18.6785 7.23405 19.1637 6.73893 18.1527H4.4755C3.98037 19.1637 4.21614 18.6785 3.72102 19.6996H0.585223V40.2934C0.585223 42.9725 3.11979 45.1461 6.2438 45.1461H62.8414C65.9654 45.1461 68.5 42.9725 68.5 40.2934V31.154C67.0028 31.9932 64.6451 31.7707 60.5426 31.7707ZM64.8219 25.2499H68.3703V23.7738H64.4918C62.9828 23.7738 61.6861 24.4411 61.6861 25.8666C61.6861 29.2028 66.7199 27.1606 66.7199 28.6367C66.7199 29.1523 66.213 29.2837 65.7296 29.2837H61.9572L61.9454 30.78H65.7178C66.7081 30.78 67.7926 30.598 68.3703 29.8802V27.2718C67.1325 25.8767 63.7373 27.1404 63.7373 25.907C63.7373 25.3206 64.2796 25.2499 64.8219 25.2499ZM58.1023 29.2736H54.3064L54.2946 30.7699H58.0905C59.8353 30.7699 61.1792 30.2037 61.1792 28.5457C61.1792 25.1892 56.1218 27.4134 56.1218 25.8868C56.1218 25.3206 56.6995 25.2398 57.2064 25.2398H60.7901V23.7637H56.8763C55.3673 23.7637 54.1059 24.431 54.1059 25.8565C54.1059 29.1927 59.1397 27.1202 59.1397 28.6266C59.1279 29.1725 58.5857 29.2736 58.1023 29.2736ZM53.1275 25.2195V23.7738H46.6201L46.6083 30.78H53.1157L53.1275 29.3343L48.577 29.3039V27.9088H53.045V26.4833H48.5888V25.2195H53.1275ZM46.4904 14.2908C46.4551 14.311 46.3254 14.5132 46.3254 15.0591C46.3254 15.6657 46.4315 15.8376 46.4551 15.8578C46.4787 15.8679 46.5848 15.9084 46.8559 15.9084L47.7165 14.1998C47.5868 14.1998 47.4689 14.1897 47.351 14.1897C46.6909 14.1897 46.5258 14.2604 46.4904 14.2908ZM46.9856 11.6925C44.2152 11.6925 42.9774 12.9057 42.9774 15.2613C42.9774 17.5057 44.1799 18.6987 46.8677 18.6987H49.1311L49.8856 17.1519H53.9291L54.7072 18.6987H58.68V13.4517L62.358 18.6987H65.1402V11.7229H63.1479V16.5857L59.7174 11.7229H56.7348V18.3347L53.4458 11.7229H50.5222L47.7518 17.2327H46.8795C45.3116 17.2327 44.9815 16.4138 44.9815 15.2209C44.9815 12.8147 46.8323 13.1989 48.8836 13.2292V11.6925H46.9856ZM51.9486 12.9158L53.269 15.7062H50.5811L51.9486 12.9158ZM40.0302 11.7026V18.7088H42.0225V11.7026H40.0302Z" fill="white"/>
</svg>
