<svg width="69" height="45" viewBox="0 0 69 45" fill="none" xmlns="http://www.w3.org/2000/svg">
<path d="M57.032 37.9984C57.032 38.6859 56.4895 39.1813 55.711 39.1813C54.9089 39.1813 54.39 38.6556 54.39 37.9984C54.39 37.3413 54.9089 36.8156 55.711 36.8156C56.4895 36.8156 57.032 37.3413 57.032 37.9984ZM20.3736 36.8156C19.5362 36.8156 19.0526 37.3413 19.0526 37.9984C19.0526 38.6556 19.5362 39.1813 20.3736 39.1813C21.1403 39.1813 21.6593 38.6859 21.6593 37.9984C21.6475 37.3413 21.1403 36.8156 20.3736 36.8156ZM34.2326 36.7852C33.5957 36.7852 33.2064 37.1391 33.1121 37.6648H35.3649C35.2587 37.0885 34.8459 36.7852 34.2326 36.7852ZM46.9474 36.8156C46.1454 36.8156 45.6618 37.3413 45.6618 37.9984C45.6618 38.6556 46.1454 39.1813 46.9474 39.1813C47.7495 39.1813 48.2684 38.6859 48.2684 37.9984C48.2684 37.3413 47.7495 36.8156 46.9474 36.8156ZM59.4382 39.4542C59.4382 39.4846 59.4735 39.5048 59.4735 39.5654C59.4735 39.5958 59.4382 39.616 59.4382 39.6767C59.4028 39.707 59.4028 39.7272 59.3792 39.7575C59.3438 39.7879 59.3202 39.8081 59.2494 39.8081C59.2141 39.8384 59.1905 39.8384 59.1197 39.8384C59.0843 39.8384 59.0607 39.8384 58.99 39.8081C58.9546 39.8081 58.931 39.7777 58.8956 39.7575C58.8602 39.7272 58.8366 39.707 58.8366 39.6767C58.8012 39.6261 58.8012 39.5958 58.8012 39.5654C58.8012 39.5149 58.8012 39.4846 58.8366 39.4542C58.8366 39.4037 58.872 39.3734 58.8956 39.343C58.931 39.3127 58.9546 39.3127 58.99 39.2925C59.0489 39.2621 59.0843 39.2621 59.1197 39.2621C59.1787 39.2621 59.2141 39.2621 59.2494 39.2925C59.3084 39.3228 59.3438 39.3228 59.3792 39.343C59.4146 39.3632 59.4028 39.4037 59.4382 39.4542ZM59.1787 39.5958C59.2377 39.5958 59.2376 39.5654 59.273 39.5654C59.3084 39.5351 59.3084 39.5149 59.3084 39.4846C59.3084 39.4542 59.3084 39.434 59.273 39.4037C59.2376 39.4037 59.2141 39.3734 59.1433 39.3734H58.9546V39.7272H59.0489V39.5857H59.0843L59.2141 39.7272H59.3084L59.1787 39.5958ZM68.013 4.70662V40.2934C68.013 42.9725 65.4771 45.1461 62.3515 45.1461H5.73623C2.6106 45.1461 0.074707 42.9725 0.074707 40.2934V4.70662C0.074707 2.0275 2.6106 -0.146118 5.73623 -0.146118H62.3515C65.4771 -0.146118 68.013 2.0275 68.013 4.70662ZM7.62341 18.82C7.62341 26.554 14.948 32.8222 23.9593 32.8222C27.1675 32.8222 30.3167 31.9932 32.9823 30.4868C24.3839 24.4916 24.4429 13.1787 32.9823 7.18354C30.3167 5.66706 27.1675 4.84816 23.9593 4.84816C14.948 4.83805 7.62341 11.1163 7.62341 18.82ZM34.0439 29.8195C42.3592 24.2591 42.3238 13.4213 34.0439 7.83057C25.7639 13.4213 25.7285 24.2692 34.0439 29.8195ZM17.2598 37.5334C17.2598 36.6538 16.5875 36.0775 15.526 36.0472C14.9834 36.0472 14.4054 36.1887 14.0162 36.7043C13.7331 36.2898 13.2495 36.0472 12.5772 36.0472C12.129 36.0472 11.6808 36.1887 11.327 36.5931V36.1483H10.3598V39.8586H11.327C11.327 37.9479 11.0321 36.8055 12.3885 36.8055C13.5916 36.8055 13.3557 37.8367 13.3557 39.8586H14.2875C14.2875 38.0085 13.9926 36.8055 15.349 36.8055C16.5521 36.8055 16.3162 37.8164 16.3162 39.8586H17.2834V37.5334H17.2598ZM22.5557 36.1483H21.6239V36.5931C21.3054 36.2595 20.8572 36.0472 20.2439 36.0472C19.029 36.0472 18.0972 36.8762 18.0972 37.9984C18.0972 39.1307 19.029 39.9496 20.2439 39.9496C20.8572 39.9496 21.3054 39.7575 21.6239 39.4037V39.8687H22.5557V36.1483ZM27.3326 38.7364C27.3326 37.22 24.6316 37.9074 24.6316 37.1997C24.6316 36.6235 26.0352 36.7145 26.8136 37.0885L27.2029 36.4314C26.0941 35.8147 23.6408 35.8248 23.6408 37.2604C23.6408 38.7061 26.3418 38.0995 26.3418 38.7769C26.3418 39.4138 24.7495 39.3632 23.9003 38.8577L23.4875 39.4947C24.8085 40.263 27.3326 40.1013 27.3326 38.7364ZM31.508 39.6767L31.2485 38.9892C30.8003 39.2015 29.8095 39.434 29.8095 38.5747V36.8964H31.3546V36.1483H29.8095V35.016H28.8423V36.1483H27.9459V36.8863H28.8423V38.5747C28.8423 40.354 30.8828 40.0305 31.508 39.6767ZM33.0767 38.3219H36.3203C36.3203 36.6841 35.4474 36.0371 34.268 36.0371C33.0177 36.0371 32.1213 36.8358 32.1213 37.9883C32.1213 40.0608 34.7869 40.4046 36.108 39.4239L35.6598 38.8173C34.7398 39.4643 33.348 39.4037 33.0767 38.3219ZM40.0474 36.1483C39.5049 35.9461 38.6792 35.9663 38.2546 36.5931V36.1483H37.2874V39.8586H38.2546V37.7659C38.2546 36.5931 39.3751 36.7448 39.7644 36.9167L40.0474 36.1483ZM41.2977 37.9984C41.2977 36.8459 42.6659 36.4718 43.7392 37.1492L44.1874 36.492C42.8192 35.572 40.3305 36.0775 40.3305 38.0085C40.3305 40.0103 42.9726 40.4147 44.1874 39.525L43.7392 38.8679C42.6541 39.525 41.2977 39.1307 41.2977 37.9984ZM49.1649 36.1483H48.1977V36.5931C47.2187 35.4811 44.671 36.1079 44.671 37.9984C44.671 39.9395 47.3131 40.4956 48.1977 39.4037V39.8687H49.1649V36.1483ZM53.1397 36.1483C52.8566 36.027 51.8423 35.8551 51.3469 36.5931V36.1483H50.4151V39.8586H51.3469V37.7659C51.3469 36.6538 52.4084 36.7246 52.8566 36.9167L53.1397 36.1483ZM57.893 34.6419H56.9612V36.5931C55.9941 35.4912 53.4346 36.0775 53.4346 37.9984C53.4346 39.9597 56.0884 40.4854 56.9612 39.4037V39.8687H57.893V34.6419ZM58.7894 27.0494V27.5145H58.8838V27.0494H59.1079V26.9685H58.5653V27.0494H58.7894ZM59.5679 39.5654C59.5679 39.5149 59.5679 39.4542 59.5325 39.4037C59.4971 39.3734 59.4735 39.3228 59.4382 39.2925C59.4028 39.2621 59.3438 39.2419 59.3084 39.2116C59.2494 39.2116 59.1787 39.1813 59.1197 39.1813C59.0843 39.1813 59.0253 39.2116 58.9546 39.2116C58.8956 39.2419 58.8602 39.2621 58.8248 39.2925C58.7659 39.3228 58.7305 39.3734 58.7305 39.4037C58.6951 39.4542 58.6951 39.5149 58.6951 39.5654C58.6951 39.5958 58.6951 39.6463 58.7305 39.707C58.7305 39.7373 58.7659 39.7879 58.8248 39.8182C58.8602 39.8485 58.8838 39.8687 58.9546 39.8991C59.0135 39.9294 59.0843 39.9294 59.1197 39.9294C59.1787 39.9294 59.2494 39.9294 59.3084 39.8991C59.3438 39.8687 59.4028 39.8485 59.4382 39.8182C59.4735 39.7879 59.4971 39.7373 59.5325 39.707C59.5679 39.6463 59.5679 39.5958 59.5679 39.5654ZM59.9453 26.9584H59.7802L59.5915 27.3123L59.4028 26.9584H59.2377V27.5044H59.332V27.0899L59.5207 27.4437H59.6505L59.8156 27.0899V27.5044H59.9453V26.9584ZM60.4643 18.82C60.4643 11.1163 53.1397 4.83805 44.1285 4.83805C40.9203 4.83805 37.771 5.66706 35.1054 7.17343C43.6095 13.1686 43.7392 24.5118 35.1054 30.4767C37.771 31.9932 40.9438 32.812 44.1285 32.812C53.1397 32.8222 60.4643 26.554 60.4643 18.82Z" fill="white"/>
</svg>
