<svg width="69" height="45" viewBox="0 0 69 45" fill="none" xmlns="http://www.w3.org/2000/svg">
<path d="M56.0352 20.0028C56.0352 20.0028 56.9316 23.7637 57.1321 24.5523H53.1927C53.5819 23.6525 55.0798 20.1545 55.0798 20.1545C55.0562 20.1848 55.4691 19.2345 55.705 18.6481L56.0352 20.0028ZM68.526 4.70662V40.2934C68.526 42.9725 65.9901 45.1461 62.8644 45.1461H6.24917C3.12354 45.1461 0.587646 42.9725 0.587646 40.2934V4.70662C0.587646 2.0275 3.12354 -0.146118 6.24917 -0.146118H62.8644C65.9901 -0.146118 68.526 2.0275 68.526 4.70662ZM18.5748 30.1026L26.0291 14.4121H21.0163L16.3809 25.1286L15.8738 22.9549L14.2225 15.7365C13.9512 14.7356 13.1138 14.4525 12.0758 14.4121H4.44456L4.362 14.7255C6.22558 15.1299 7.88866 15.7163 9.33942 16.4543L13.562 30.1026H18.5748ZM29.7091 30.1228L32.6814 14.4121H27.9399L24.9794 30.1228H29.7091ZM46.2101 24.987C46.2337 23.1976 44.9599 21.8327 42.2352 20.7105C40.5722 19.9927 39.5578 19.5075 39.5578 18.7694C39.5814 18.1022 40.4188 17.4147 42.2824 17.4147C43.8275 17.3844 44.9599 17.6978 45.8091 18.0112L46.2337 18.1831L46.8824 14.7862C45.9506 14.4728 44.4645 14.1189 42.6363 14.1189C37.9537 14.1189 34.663 16.2622 34.6394 19.3154C34.604 21.5699 36.9983 22.8235 38.7911 23.5817C40.6194 24.3501 41.2445 24.8556 41.2445 25.5329C41.2209 26.5844 39.7583 27.0696 38.4019 27.0696C36.5147 27.0696 35.5004 26.8169 33.9553 26.2305L33.3301 25.9778L32.6696 29.5061C33.7783 29.9408 35.8306 30.325 37.9537 30.3452C42.9311 30.3554 46.1747 28.2424 46.2101 24.987ZM62.8644 30.1228L59.0429 14.4121H55.3747C54.2424 14.4121 53.3814 14.6952 52.8978 15.7163L45.8563 30.1228H50.8337C50.8337 30.1228 51.6475 28.1817 51.8245 27.7672H57.9106C58.0521 28.3233 58.4767 30.1228 58.4767 30.1228H62.8644Z" fill="white"/>
</svg>
