<svg width="172" height="59" viewBox="0 0 172 59" fill="none" xmlns="http://www.w3.org/2000/svg">
<rect x="0.333496" y="0.5" width="171.238" height="58" rx="8.28571" fill="#1C1C1C"/>
<path d="M52.9716 15.9538H49.4659V16.9866H51.9524C51.8294 18.435 50.6157 19.0527 49.4701 19.0527C48.0044 19.0527 46.7253 17.9077 46.7253 16.3029C46.7253 14.7397 47.9445 13.5358 49.4732 13.5358C50.6529 13.5358 51.3478 14.2821 51.3478 14.2821L52.0762 13.5333C52.0762 13.5333 51.1412 12.5 49.436 12.5C47.2647 12.5 45.5851 14.3194 45.5851 16.2844C45.5851 18.2102 47.1651 20.0876 49.4913 20.0876C51.5375 20.0876 53.0353 18.6963 53.0353 16.6387C53.0353 16.2046 52.9716 15.9538 52.9716 15.9538Z" fill="white"/>
<path d="M53.6322 32.5995H61.3358C61.3412 32.6213 61.475 33.1696 61.475 34.1041C61.475 38.6256 58.184 41.6833 53.6881 41.6833C48.5762 41.6833 45.1042 37.5575 45.1042 33.3261C45.1042 29.0079 48.7953 25.01 53.5665 25.0102C57.3135 25.0102 59.368 27.2807 59.368 27.2807L57.7672 28.9263C57.7672 28.9263 56.2401 27.2859 53.6483 27.2859C50.2892 27.2859 47.61 29.9314 47.61 33.3666C47.61 36.8926 50.4205 39.4086 53.6413 39.4086C56.1587 39.4086 58.8257 38.0514 59.0957 34.869H53.6322V32.5995Z" fill="white"/>
<path fill-rule="evenodd" clip-rule="evenodd" d="M62.4578 36.2709C62.4578 33.4093 64.7231 30.956 67.8844 30.956C70.4827 30.956 73.3005 32.7839 73.3005 36.3332C73.3005 39.4299 70.8781 41.6736 67.9212 41.6736C64.655 41.6736 62.4578 39.1746 62.4578 36.2709ZM70.9432 36.3191C70.9432 34.3086 69.4702 33.0608 67.9156 33.0608C66.169 33.0608 64.8266 34.4472 64.8266 36.3034C64.8266 38.2004 66.1858 39.5701 67.9085 39.5701C69.4763 39.5701 70.9432 38.2868 70.9432 36.3191Z" fill="white"/>
<path fill-rule="evenodd" clip-rule="evenodd" d="M79.8142 30.956C76.6531 30.956 74.3876 33.4093 74.3876 36.2709C74.3876 39.1746 76.5849 41.6736 79.8513 41.6736C82.808 41.6736 85.2304 39.4299 85.2304 36.3332C85.2304 32.7839 82.4128 30.956 79.8142 30.956ZM79.8456 33.0608C81.4 33.0608 82.8732 34.3086 82.8732 36.3191C82.8732 38.2868 81.4063 39.5701 79.8383 39.5701C78.1158 39.5701 76.7567 38.2004 76.7567 36.3034C76.7567 34.4472 78.0988 33.0608 79.8456 33.0608Z" fill="white"/>
<path fill-rule="evenodd" clip-rule="evenodd" d="M86.3172 36.316C86.3172 33.4844 88.5981 30.9617 91.4994 30.9617C92.7626 30.9617 93.7141 31.447 94.4099 32.1915V31.2838H96.673V40.9131C96.673 44.6965 94.4744 46.5 91.5894 46.5C88.9521 46.5 87.4706 44.8901 86.7345 43.3444L88.8091 42.4834C89.0965 43.174 89.9236 44.3917 91.5723 44.3917C93.2791 44.3917 94.4098 43.284 94.4098 41.4351V40.3784C93.8059 41.0743 92.988 41.6807 91.4493 41.6807C88.9613 41.6807 86.3172 39.5417 86.3172 36.316ZM91.7094 33.0623C93.132 33.0623 94.5928 34.2682 94.5928 36.3275C94.5928 38.4207 93.135 39.5742 91.678 39.5742C90.1314 39.5742 88.6919 38.3274 88.6919 36.3474C88.6919 34.29 90.1868 33.0623 91.7094 33.0623Z" fill="white"/>
<path fill-rule="evenodd" clip-rule="evenodd" d="M102.177 36.3005C102.177 33.1106 104.475 30.9487 107.211 30.9487C109.37 30.9487 111.001 32.3781 111.7 34.0892L112.076 34.963L104.838 37.9444C105.271 38.7435 105.968 39.5684 107.486 39.5686C108.837 39.5686 109.646 38.8395 110.13 38.0933L111.996 39.326C111.16 40.4374 109.758 41.6776 107.474 41.6776C104.738 41.6776 102.177 39.6759 102.177 36.3005ZM107.306 33.0099C108.292 33.0099 109.002 33.5302 109.303 34.1545L104.47 36.1601C104.261 34.6073 105.743 33.0099 107.306 33.0099Z" fill="white"/>
<path d="M100.865 41.3595H98.488V25.5644H100.865V41.3595Z" fill="white"/>
<path d="M130.363 41.3595H132.741V25.5644H130.363V41.3595Z" fill="white"/>
<path fill-rule="evenodd" clip-rule="evenodd" d="M120.133 41.3595H117.756V25.5644L123.507 25.5642C126.295 25.5642 128.575 27.8285 128.575 30.5961C128.575 33.3635 126.295 35.6278 123.507 35.6278H120.133V41.3595ZM120.133 33.2675V27.9245H123.507C124.982 27.9245 126.198 29.1312 126.198 30.5961C126.198 32.0608 124.982 33.2675 123.507 33.2675H120.133Z" fill="white"/>
<path d="M150.294 46.5L157.177 30.9491H154.581L151.466 37.9862L148.351 30.9491H145.754L150.167 40.9194L147.697 46.5H150.294Z" fill="white"/>
<path fill-rule="evenodd" clip-rule="evenodd" d="M142.471 41.3595H144.848V35.6786C145.22 29.8196 137.738 28.4416 134.907 32.6654L136.82 33.9398C138.204 31.5371 142.154 32.0899 142.414 34.6649C141.227 34.3527 139.944 34.1264 138.773 34.2441C136.944 34.4278 135.378 35.581 135.129 37.4697C134.994 38.4904 135.224 39.7485 135.942 40.5152C137.06 41.7098 138.896 41.8708 140.405 41.4626C141.254 41.2327 141.923 40.7317 142.471 40.0846V41.3595ZM139.84 39.4038C141.141 39.052 142.167 38.1071 142.471 36.7936C141.806 36.5797 141.194 36.4071 140.492 36.3231C136.407 35.7133 137.091 40.1477 139.84 39.4038Z" fill="white"/>
<path d="M68.3828 19.9404H67.3009V12.7523H68.3828V19.9404Z" fill="white"/>
<path d="M61.2418 19.9404H62.3238V13.8263H64.0998V12.7523H59.4658V13.8263H61.2418V19.9404Z" fill="white"/>
<path d="M58.3251 19.9404H54.1758V12.7523H58.3251V13.8263H55.2578V15.8093H57.9559V16.8834H55.2578V18.8662H58.3251V19.9404Z" fill="white"/>
<path d="M72.1214 19.9404V13.8263H73.8974V12.7523H69.2636V13.8263H71.0396V19.9404H72.1214Z" fill="white"/>
<path fill-rule="evenodd" clip-rule="evenodd" d="M76.6813 16.2844C76.6813 14.3192 78.361 12.5 80.5324 12.5C82.7037 12.5 84.3835 14.3192 84.3835 16.2844C84.3835 18.1947 82.8284 20.0575 80.5324 20.087C78.2364 20.0575 76.6813 18.1947 76.6813 16.2844ZM80.5324 19.0522C79.0809 19.0345 77.8216 17.8953 77.8216 16.3029C77.8216 14.7525 79.0212 13.5555 80.5324 13.5361C82.0437 13.5555 83.2431 14.7525 83.2431 16.3029C83.2431 17.8953 81.9838 19.0345 80.5324 19.0522Z" fill="white"/>
<path d="M86.5462 19.9404H85.4642V12.7523H86.5462L90.0192 17.9855V12.7523H91.1013V19.9404H90.0211L86.5462 14.7045V19.9404Z" fill="white"/>
<path d="M16.0428 21.466L28.2672 33.5838L16.1015 45.8079C15.7465 45.5839 15.5561 45.0989 15.5529 44.4725L15.4427 22.7766C15.4393 22.0905 15.6907 21.6721 16.0428 21.466Z" fill="white"/>
<path d="M17.4334 21.4823L32.2983 29.5335L28.7728 33.0756L16.9147 21.3205C17.0943 21.3439 17.2746 21.3962 17.4334 21.4823Z" fill="white"/>
<path d="M32.9593 37.2255L29.2821 33.5803L32.9556 29.8895L38.0144 32.6292C39.2607 33.3037 38.6232 34.1478 38.0144 34.4785L32.9593 37.2255Z" fill="white"/>
<path d="M17.4334 45.6614C17.3211 45.7237 17.2128 45.7725 17.1092 45.8113L28.7764 34.0885L32.3013 37.5827L17.4334 45.6614Z" fill="white"/>
</svg>
