<svg width="172" height="59" viewBox="0 0 172 59" fill="none" xmlns="http://www.w3.org/2000/svg">
<rect x="0.428711" y="0.5" width="171.238" height="58" rx="8.28571" fill="#1C1C1C"/>
<path d="M34.8547 12.5C35.0624 14.374 34.3143 16.2207 33.221 17.578C32.0802 18.9143 30.2551 19.9364 28.4775 19.8047C28.2448 18.0015 29.1455 16.0841 30.1537 14.9142C31.2933 13.5866 33.2723 12.5695 34.8547 12.5Z" fill="white"/>
<path d="M40.6738 23.3104C40.4754 23.428 37.188 25.3759 37.224 29.3486C37.2665 34.1459 41.4521 35.7318 41.5021 35.748C41.4771 35.8597 40.8466 38.0392 39.2767 40.2473C37.9658 42.1946 36.5922 44.0984 34.4106 44.1306C33.3731 44.155 32.6727 43.859 31.9427 43.5505C31.1817 43.2289 30.3885 42.8937 29.148 42.8937C27.8329 42.8937 27.0046 43.24 26.2059 43.5738C25.5148 43.8627 24.8459 44.1423 23.9029 44.1803C21.8251 44.2561 20.2377 42.1039 18.8792 40.174C16.1634 36.236 14.0494 29.0766 16.884 24.2047C18.2575 21.8153 20.7618 20.2766 23.4388 20.2357C24.6176 20.2117 25.7482 20.6627 26.7394 21.0581C27.4973 21.3605 28.1737 21.6303 28.7277 21.6303C29.2143 21.6303 29.8717 21.3713 30.6379 21.0694C31.8454 20.5936 33.3231 20.0113 34.8284 20.1686C35.858 20.1984 38.7876 20.5722 40.6778 23.3081L40.6738 23.3104Z" fill="white"/>
<path fill-rule="evenodd" clip-rule="evenodd" d="M55.7224 13.5696H52.7859V22.2433H55.7224C58.3199 22.2433 59.8457 20.6384 59.8457 17.9034C59.8457 15.1745 58.3139 13.5696 55.7224 13.5696ZM53.8758 14.5433V21.2695H55.6498C57.6297 21.2695 58.7316 20.0673 58.7316 17.9154C58.7316 15.7455 57.6357 14.5433 55.6498 14.5433H53.8758Z" fill="white"/>
<path fill-rule="evenodd" clip-rule="evenodd" d="M64.0553 22.3515C62.3116 22.3515 61.1369 21.1072 61.1369 19.1176C61.1369 17.122 62.3116 15.8838 64.0553 15.8838C65.793 15.8838 66.9676 17.122 66.9676 19.1176C66.9676 21.1072 65.793 22.3515 64.0553 22.3515ZM65.8959 19.1176C65.8959 20.5903 65.1694 21.4318 64.0553 21.4318C62.9412 21.4318 62.2086 20.5903 62.2086 19.1176C62.2086 17.645 62.9412 16.8034 64.0553 16.8034C65.1694 16.8034 65.8959 17.645 65.8959 19.1176Z" fill="white"/>
<path d="M73.6233 22.2433H74.695L76.4508 15.992H75.4094L74.1501 21.0772H74.1258L72.6969 15.992H71.6797L70.2569 21.0772H70.2327L68.9733 15.992H67.9258L69.6878 22.2433H70.7594L72.1762 17.4045H72.2004L73.6233 22.2433Z" fill="white"/>
<path d="M78.7169 15.992H77.7239V22.2433H78.7774V18.5646C78.7774 17.5067 79.4253 16.8094 80.4183 16.8094C81.387 16.8094 81.8653 17.3624 81.8653 18.3723V22.2433H82.9188V18.1859C82.9188 16.7674 82.1196 15.8838 80.7392 15.8838C79.7644 15.8838 79.0923 16.3165 78.7411 16.9898H78.7169V15.992Z" fill="white"/>
<path d="M84.7247 13.5696V22.2433H85.7783V13.5696H84.7247Z" fill="white"/>
<path fill-rule="evenodd" clip-rule="evenodd" d="M87.3057 19.1176C87.3057 21.1072 88.4803 22.3515 90.224 22.3515C91.9617 22.3515 93.1363 21.1072 93.1363 19.1176C93.1363 17.122 91.9617 15.8838 90.224 15.8838C88.4803 15.8838 87.3057 17.122 87.3057 19.1176ZM90.224 21.4318C91.3381 21.4318 92.0646 20.5903 92.0646 19.1176C92.0646 17.645 91.3381 16.8034 90.224 16.8034C89.1099 16.8034 88.3773 17.645 88.3773 19.1176C88.3773 20.5903 89.1099 21.4318 90.224 21.4318Z" fill="white"/>
<path fill-rule="evenodd" clip-rule="evenodd" d="M96.4498 22.3515C95.1965 22.3515 94.3549 21.6001 94.3549 20.4761C94.3549 19.4061 95.1844 18.7329 96.6375 18.6488L98.4418 18.5466V18.0236C98.4418 17.2603 97.9332 16.8034 97.0614 16.8034C96.25 16.8034 95.7414 17.1821 95.6082 17.7952H94.591C94.6637 16.7133 95.5961 15.8838 97.0856 15.8838C98.5629 15.8838 99.4953 16.6772 99.4953 17.9215V22.2433H98.4963V21.1673H98.4721C98.0967 21.8826 97.2975 22.3515 96.4498 22.3515ZM98.4418 19.869C98.4418 20.7706 97.6789 21.4619 96.686 21.4619C95.9291 21.4619 95.4266 21.0712 95.4266 20.4761C95.4266 19.887 95.911 19.5143 96.7586 19.4602L98.4418 19.3581V19.869Z" fill="white"/>
<path fill-rule="evenodd" clip-rule="evenodd" d="M100.938 19.1176C100.938 21.0772 102.028 22.3515 103.632 22.3515C104.54 22.3515 105.261 21.9067 105.667 21.1854H105.685V22.2433H106.69V13.5696H105.636V17.0078H105.612C105.237 16.3226 104.51 15.8838 103.608 15.8838C102.022 15.8838 100.938 17.1581 100.938 19.1176ZM103.832 16.8034C102.718 16.8034 102.016 17.7051 102.016 19.1176C102.016 20.5362 102.718 21.4318 103.832 21.4318C104.916 21.4318 105.642 20.5182 105.642 19.1176C105.642 17.7231 104.916 16.8034 103.832 16.8034Z" fill="white"/>
<path fill-rule="evenodd" clip-rule="evenodd" d="M114.092 22.3515C112.348 22.3515 111.174 21.1072 111.174 19.1176C111.174 17.122 112.348 15.8838 114.092 15.8838C115.83 15.8838 117.004 17.122 117.004 19.1176C117.004 21.1072 115.83 22.3515 114.092 22.3515ZM115.933 19.1176C115.933 20.5903 115.206 21.4318 114.092 21.4318C112.978 21.4318 112.245 20.5903 112.245 19.1176C112.245 17.645 112.978 16.8034 114.092 16.8034C115.206 16.8034 115.933 17.645 115.933 19.1176Z" fill="white"/>
<path d="M119.47 15.992H118.477V22.2433H119.531V18.5646C119.531 17.5067 120.179 16.8094 121.171 16.8094C122.14 16.8094 122.619 17.3624 122.619 18.3723V22.2433H123.672V18.1859C123.672 16.7674 122.873 15.8838 121.492 15.8838C120.518 15.8838 119.845 16.3165 119.494 16.9898H119.47V15.992Z" fill="white"/>
<path d="M129.772 14.4832H128.719V15.992H127.78V16.8515H128.719V20.6203C128.719 21.8225 129.167 22.2914 130.323 22.2914C130.572 22.2914 130.862 22.2733 130.989 22.2433V21.3657C130.917 21.3777 130.674 21.3958 130.553 21.3958C130.015 21.3958 129.772 21.1373 129.772 20.5663V16.8515H130.995V15.992H129.772V14.4832Z" fill="white"/>
<path d="M132.583 13.5696V22.2433H133.637V18.6007C133.637 17.5187 134.285 16.8094 135.332 16.8094C136.319 16.8094 136.822 17.4045 136.822 18.3963V22.2433H137.875V18.204C137.875 16.8094 137.04 15.8838 135.659 15.8838C134.702 15.8838 134.012 16.2925 133.661 16.9898H133.637V13.5696H132.583Z" fill="white"/>
<path fill-rule="evenodd" clip-rule="evenodd" d="M144.84 20.452H143.804C143.629 21.0411 143.041 21.4438 142.242 21.4438C141.11 21.4438 140.402 20.6564 140.402 19.4602V19.4001H144.918V19.0034C144.918 17.11 143.871 15.8838 142.169 15.8838C140.432 15.8838 139.318 17.2001 139.318 19.1417C139.318 21.1072 140.414 22.3515 142.218 22.3515C143.592 22.3515 144.658 21.546 144.84 20.452ZM142.151 16.7914C141.164 16.7914 140.474 17.5428 140.408 18.5827H143.828C143.804 17.5368 143.144 16.7914 142.151 16.7914Z" fill="white"/>
<path fill-rule="evenodd" clip-rule="evenodd" d="M62.9883 43.5066L61.4625 39.0312H55.1051L53.5793 43.5066H50.8861L56.9083 26.9476H59.7055L65.7277 43.5066H62.9883ZM55.764 36.9656L58.2491 29.7017H58.3185L60.8036 36.9656H55.764Z" fill="white"/>
<path fill-rule="evenodd" clip-rule="evenodd" d="M79.2836 37.4705C79.2836 33.6492 77.2492 31.2394 74.163 31.2394C72.406 31.2394 71.0074 32.123 70.2908 33.5115H70.2445V31.4345H67.8287V47.5H70.3254V41.5213H70.3832C71.0768 42.864 72.4638 43.7131 74.2092 43.7131C77.2608 43.7131 79.2836 41.2918 79.2836 37.4705ZM73.5042 41.6131C75.4807 41.6131 76.7175 40.0066 76.7175 37.4705C76.7175 34.946 75.4807 33.3279 73.5042 33.3279C71.5969 33.3279 70.3139 34.9804 70.3139 37.4705C70.3139 39.9836 71.5854 41.6131 73.5042 41.6131Z" fill="white"/>
<path fill-rule="evenodd" clip-rule="evenodd" d="M88.1003 31.2394C91.1865 31.2394 93.2209 33.6492 93.2209 37.4705C93.2209 41.2918 91.1981 43.7131 88.1466 43.7131C86.4012 43.7131 85.0141 42.864 84.3206 41.5213H84.2628V47.5H81.766V31.4345H84.1818V33.5115H84.2281C84.9447 32.123 86.3434 31.2394 88.1003 31.2394ZM90.6548 37.4705C90.6548 40.0066 89.418 41.6131 87.4415 41.6131C85.5227 41.6131 84.2512 39.9836 84.2512 37.4705C84.2512 34.9804 85.5342 33.3279 87.4415 33.3279C89.418 33.3279 90.6548 34.946 90.6548 37.4705Z" fill="white"/>
<path d="M103.179 38.8935H100.625C100.787 41.8885 103.283 43.782 106.982 43.782C110.935 43.782 113.42 41.8426 113.42 38.7443C113.42 36.323 111.999 34.9574 108.577 34.1542L106.739 33.7066C104.589 33.1788 103.711 32.4902 103.711 31.3197C103.711 29.8509 105.086 28.8411 107.098 28.8411C109.109 28.8411 110.484 29.8394 110.635 31.4919H113.155C113.074 28.6345 110.658 26.6722 107.132 26.6722C103.572 26.6722 101.064 28.6345 101.064 31.4919C101.064 33.7984 102.486 35.2214 105.549 35.9558L107.71 36.4722C109.872 37 110.785 37.7689 110.785 39.0541C110.785 40.5345 109.271 41.6131 107.167 41.6131C104.971 41.6131 103.364 40.5345 103.179 38.8935Z" fill="white"/>
<path d="M119.243 28.5771H116.735V31.4345H114.967V33.3968H116.735V40.3279C116.735 42.6574 117.694 43.5869 120.157 43.5869C120.711 43.5869 121.266 43.541 121.544 43.4721V41.5099C121.382 41.5443 120.977 41.5672 120.723 41.5672C119.706 41.5672 119.243 41.0967 119.243 40.0525V33.3968H121.555V31.4345H119.243V28.5771Z" fill="white"/>
<path fill-rule="evenodd" clip-rule="evenodd" d="M123.332 37.4705C123.332 41.3607 125.621 43.7361 129.1 43.7361C132.58 43.7361 134.868 41.3607 134.868 37.4705C134.868 33.5919 132.568 31.2165 129.1 31.2165C125.633 31.2165 123.332 33.5919 123.332 37.4705ZM129.1 41.6935C131.065 41.6935 132.325 40.1558 132.325 37.4705C132.325 34.7968 131.054 33.2591 129.1 33.2591C127.147 33.2591 125.875 34.7968 125.875 37.4705C125.875 40.1558 127.147 41.6935 129.1 41.6935Z" fill="white"/>
<path d="M137.362 31.4345H139.743V33.4886H139.801C140.206 32.0771 141.292 31.2394 142.726 31.2394C143.084 31.2394 143.396 31.2968 143.581 31.3312V33.6378C143.384 33.5574 142.945 33.5001 142.46 33.5001C140.853 33.5001 139.859 34.5673 139.859 36.2771V43.5066H137.362V31.4345Z" fill="white"/>
<path fill-rule="evenodd" clip-rule="evenodd" d="M153.75 39.9693H156.12C155.773 42.1725 153.669 43.7447 150.883 43.7447C147.312 43.7447 145.15 41.3463 145.15 37.5365C145.15 33.7496 147.346 31.225 150.779 31.225C154.155 31.225 156.258 33.589 156.258 37.2496V38.0988H147.67V38.248C147.67 40.348 148.942 41.7365 150.941 41.7365C152.363 41.7365 153.415 41.025 153.75 39.9693ZM147.67 36.5086L153.75 36.4515C153.75 35.9429 153.536 35 153.032 34.5C152.528 34 151.787 33.6204 150.779 33.6204C148.751 33.6204 147.67 34.9657 147.67 36.5086Z" fill="white"/>
</svg>
